<svg width="1000" height="1215" viewBox="0 0 1000 1215" fill="none" xmlns="http://www.w3.org/2000/svg">
<path d="M446.119 686.441V1055.4C446.119 1103.45 431.248 1142.35 401.507 1172.1C371.766 1200.7 332.873 1215 284.83 1215H161.289C113.245 1215 74.3531 1200.7 44.6119 1172.1C14.8706 1142.35 0 1103.45 0 1055.4V159.598C0 111.547 14.8706 73.2203 44.6119 44.6187C74.3531 14.8729 113.245 0 161.289 0H284.83C332.873 0 371.766 14.8729 401.507 44.6187C431.248 73.2203 446.119 111.547 446.119 159.598V544.004L283.114 526.843V168.178C283.114 162.458 280.254 159.598 274.535 159.598H171.584C165.865 159.598 163.005 162.458 163.005 168.178V1046.82C163.005 1052.54 165.865 1055.4 171.584 1055.4H274.535C280.254 1055.4 283.114 1052.54 283.114 1046.82V686.441H446.119Z" fill="#0D0D0E"/>
<path d="M497.259 166.462L514.417 6.86442H785.52C833.563 6.86442 872.456 21.7373 902.197 51.4831C931.938 80.0848 946.809 118.411 946.809 166.462V703.602C946.809 728.771 941.662 751.653 931.366 772.246C921.071 791.695 907.345 808.284 890.186 822.013L1000 1208.14H835.279L737.476 863.199H686.001V1208.14H522.996V166.462H497.259ZM775.225 166.462H686.001V703.602H775.225C780.944 703.602 783.804 700.742 783.804 695.021V175.042C783.804 169.322 780.944 166.462 775.225 166.462Z" fill="#0D0D0E"/>
</svg>
